<svg xmlns="http://www.w3.org/2000/svg" width="900" height="1200" viewBox="0 0 900 1200">
    <rect width="900" height="1200" fill="#f2f2f2"/>
    <g opacity=".18"><path d="M0 170H900M0 1030H900" stroke="#bdbdbd"/><path d="M120 0V1200M780 0V1200" stroke="#bdbdbd"/></g>
    <path d="M290 250 L170 330 L225 465 L300 430 L300 930 Q450 985 600 930 L600 430 L675 465 L730 330 L610 250 Q560 220 525 210 Q490 265 450 265 Q410 265 375 210 Q340 220 290 250Z" fill="none" stroke="#111111" stroke-width="6"/>
    <g><path d="M230 500 L520 290 M250 320 L520 520" fill="none" stroke="#111111" stroke-width="8" opacity=".85"/></g>
    <text x="450" y="730" text-anchor="middle" fill="#111111" font-size="38" font-family="Arial, Helvetica, sans-serif" font-weight="700" letter-spacing="7">ВРОДЕ РОВНО</text>
    <text x="450" y="785" text-anchor="middle" fill="#bdbdbd" font-size="20" font-family="Arial, Helvetica, sans-serif" letter-spacing="5">DROP 04</text>
    </svg>