<svg xmlns="http://www.w3.org/2000/svg" viewBox="0 0 690 620">
<defs>
  <linearGradient id="fabric" x1="0" y1="0" x2="1" y2="1">
    <stop offset="0" stop-color="#d0d0cd"/>
    <stop offset=".18" stop-color="#f4f4f2"/>
    <stop offset=".5" stop-color="#ffffff"/>
    <stop offset=".78" stop-color="#ececea"/>
    <stop offset="1" stop-color="#c8c8c5"/>
  </linearGradient>
  <linearGradient id="panel" x1="0" y1="0" x2="0" y2="1">
    <stop offset="0" stop-color="#ffffff" stop-opacity=".9"/>
    <stop offset=".52" stop-color="#f6f6f4" stop-opacity=".0"/>
    <stop offset="1" stop-color="#737371" stop-opacity=".15"/>
  </linearGradient>
  <linearGradient id="sleeveL" x1="0" y1="0" x2="1" y2="1">
    <stop offset="0" stop-color="#cacac8"/>
    <stop offset=".55" stop-color="#f6f6f4"/>
    <stop offset="1" stop-color="#dfdfdc"/>
  </linearGradient>
  <linearGradient id="sleeveR" x1="1" y1="0" x2="0" y2="1">
    <stop offset="0" stop-color="#cacac8"/>
    <stop offset=".55" stop-color="#f6f6f4"/>
    <stop offset="1" stop-color="#dfdfdc"/>
  </linearGradient>
  <radialGradient id="shine" cx="50%" cy="25%" r="65%">
    <stop offset="0" stop-color="#fff" stop-opacity=".72"/>
    <stop offset=".4" stop-color="#fff" stop-opacity=".14"/>
    <stop offset="1" stop-color="#767674" stop-opacity=".12"/>
  </radialGradient>
  <filter id="blur10"><feGaussianBlur stdDeviation="10"/></filter>
  <filter id="blur5"><feGaussianBlur stdDeviation="5"/></filter>
  <clipPath id="teeClip">
    <path d="M240 88 C212 91 182 101 150 118 L56 172 C48 176 45 186 49 196 L82 282 C86 292 96 296 107 292 L170 270 L173 491 C173 505 182 514 197 519 C292 549 397 549 492 519 C507 514 516 505 516 491 L519 270 L582 292 C593 296 603 292 607 282 L640 196 C644 186 641 176 633 172 L539 118 C507 101 478 91 450 88 C430 118 395 136 345 136 C295 136 260 118 240 88 Z"/>
  </clipPath>
  <pattern id="grain" width="5" height="5" patternUnits="userSpaceOnUse">
    <circle cx="1" cy="1" r=".38" fill="#888" opacity=".18"/>
    <circle cx="4" cy="3" r=".38" fill="#888" opacity=".12"/>
  </pattern>
</defs>
<g>
  <path d="M240 88 C212 91 182 101 150 118 L56 172 C48 176 45 186 49 196 L82 282 C86 292 96 296 107 292 L170 270 L173 491 C173 505 182 514 197 519 C292 549 397 549 492 519 C507 514 516 505 516 491 L519 270 L582 292 C593 296 603 292 607 282 L640 196 C644 186 641 176 633 172 L539 118 C507 101 478 91 450 88 C430 118 395 136 345 136 C295 136 260 118 240 88 Z" fill="url(#fabric)"/>
  <path d="M150 118 L56 172 C48 176 45 186 49 196 L82 282 C86 292 96 296 107 292 L170 270 L170 156 C160 146 153 133 150 118Z" fill="url(#sleeveL)"/>
  <path d="M539 118 L633 172 C641 176 644 186 640 196 L607 282 C603 292 593 296 582 292 L519 270 L519 156 C529 146 536 133 539 118Z" fill="url(#sleeveR)"/>
  <path d="M173 152 C205 121 233 103 240 88 C260 118 295 136 345 136 C395 136 430 118 450 88 C457 103 485 121 516 152 L516 491 C516 505 507 514 492 519 C397 549 292 549 197 519 C182 514 173 505 173 491 Z" fill="url(#shine)" opacity=".9"/>
  <path d="M240 88 C212 91 182 101 150 118 L56 172 C48 176 45 186 49 196 L82 282 C86 292 96 296 107 292 L170 270 L173 491 C173 505 182 514 197 519 C292 549 397 549 492 519 C507 514 516 505 516 491 L519 270 L582 292 C593 296 603 292 607 282 L640 196 C644 186 641 176 633 172 L539 118 C507 101 478 91 450 88 C430 118 395 136 345 136 C295 136 260 118 240 88 Z" fill="url(#grain)" opacity=".08"/>
</g>
<path d="M240 88 C260 105 289 114 345 114 C401 114 430 105 450 88 C438 123 404 149 345 149 C286 149 252 123 240 88Z" fill="#d3d3d0"/>
<path d="M264 100 C285 111 310 117 345 117 C380 117 405 111 426 100 C414 124 390 136 345 136 C300 136 276 124 264 100Z" fill="#51514f" opacity=".85"/>
<path d="M272 106 C293 115 316 119 345 119 C374 119 397 115 418 106" fill="none" stroke="#fafaf8" stroke-width="5" opacity=".78"/>
<g fill="none" stroke="#8a8a88" stroke-opacity=".5">
  <path d="M173 155 C195 132 217 120 239 111"/>
  <path d="M517 155 C495 132 473 120 451 111"/>
  <path d="M85 280 C116 267 145 255 171 240"/>
  <path d="M605 280 C574 267 545 255 519 240"/>
  <path d="M200 516 C292 540 398 540 490 516" stroke-width="2"/>
</g>
<g clip-path="url(#teeClip)" fill="none" stroke-linecap="round">
  <path d="M212 154 C227 250 215 361 232 494" stroke="#8b8b89" stroke-opacity=".11" stroke-width="25" filter="url(#blur10)"/>
  <path d="M478 154 C463 248 476 362 459 494" stroke="#6f6f6d" stroke-opacity=".12" stroke-width="27" filter="url(#blur10)"/>
  <path d="M334 144 C322 236 325 360 318 516" stroke="#858583" stroke-opacity=".08" stroke-width="13" filter="url(#blur5)"/>
  <path d="M372 144 C383 236 380 360 388 516" stroke="#ffffff" stroke-opacity=".27" stroke-width="16" filter="url(#blur10)"/>
  <path d="M184 340 C242 327 294 333 345 347 C396 360 445 358 507 342" stroke="#7e7e7c" stroke-opacity=".08" stroke-width="11" filter="url(#blur5)"/>
  <path d="M186 438 C248 430 295 438 345 447 C395 456 441 452 503 440" stroke="#7b7b79" stroke-opacity=".08" stroke-width="10" filter="url(#blur5)"/>
</g>
<g>
  <text x="345" y="253" text-anchor="middle" fill="#1f1f1f" font-family="Arial,Helvetica,sans-serif" font-size="28" font-weight="700" letter-spacing="8">ВР</text>
  <rect x="278" y="268" width="134" height="1.5" fill="#2c2c2c" opacity=".35"/>
  <text x="345" y="289" text-anchor="middle" fill="#3d3d3d" font-family="Arial,Helvetica,sans-serif" font-size="10" font-weight="700" letter-spacing="5">VRODE ROVNO</text>
  <text x="345" y="313" text-anchor="middle" fill="#777775" font-family="Arial,Helvetica,sans-serif" font-size="7.6" letter-spacing="3.4">NOT PERFECTLY EVEN / KURSK / 2026</text>
</g>
</svg>